<?xml version="1.0" encoding="UTF-8"?>
<svg version="1.1" xmlns="http://www.w3.org/2000/svg" width="214" height="158">
<path d="M0 0 C8.559375 -0.165 17.11875 -0.33 25.9375 -0.5 C28.62253662 -0.57283203 31.30757324 -0.64566406 34.07397461 -0.72070312 C36.22506522 -0.74408884 38.37619148 -0.76446969 40.52734375 -0.78125 C41.62566528 -0.82217773 42.72398682 -0.86310547 43.85559082 -0.90527344 C50.00146303 -0.91080092 53.44589993 -0.23397383 58.14697266 3.87866211 C60.9667309 6.72146245 63.46575202 9.55782036 65.4375 13.0625 C65.88996094 13.83722656 66.34242187 14.61195312 66.80859375 15.41015625 C71.1034035 24.74608695 71.52096015 36.11247021 69.3125 46.11328125 C66.05685895 54.83568622 60.24717833 61.33948201 53 67 C54.50331045 71.895077 56.49769512 76.38439119 58.7109375 80.984375 C59.07523361 81.74906097 59.43952972 82.51374695 59.81486511 83.30160522 C60.5945435 84.93761951 61.37570914 86.5729257 62.15823364 88.20758057 C64.2134411 92.50191311 66.25659795 96.80197419 68.30078125 101.1015625 C68.70689133 101.95511322 69.1130014 102.80866394 69.53141785 103.68807983 C76.60549777 118.56838998 83.46222038 133.54968752 90.25 148.5625 C90.63357666 149.40893066 91.01715332 150.25536133 91.41235352 151.12744141 C94 156.8805996 94 156.8805996 94 158 C90.7 158 87.4 158 84 158 C83.14322917 156.1640625 82.28645833 154.328125 81.4296875 152.4921875 C81.15717667 151.90824219 80.88466583 151.32429687 80.60389709 150.72265625 C79.05692331 147.40773957 77.50999345 144.09280242 75.96313477 140.77783203 C72.48828803 133.33124344 69.01268288 125.88501045 65.53543091 118.43954468 C64.09400112 115.35286033 62.65323877 112.26586738 61.21386719 109.17822266 C60.92915558 108.56747894 60.64444397 107.95673523 60.35110474 107.32748413 C59.77691936 106.09574654 59.20276155 104.86399609 58.62863159 103.63223267 C56.81529803 99.74342691 54.99623423 95.85734924 53.17378235 91.97280884 C51.94811593 89.35874376 50.7254921 86.74326277 49.50344849 84.12750244 C48.92170506 82.88414587 48.33861319 81.64141926 47.75411987 80.39935303 C46.94979028 78.68974194 46.15054244 76.97774276 45.3515625 75.265625 C44.89604004 74.29399414 44.44051758 73.32236328 43.97119141 72.32128906 C43 70 43 70 43 68 C39.37 68 35.74 68 32 68 C34.85734849 66.09510101 37.64962019 64.71363108 40.75 63.25 C50.41517535 58.42324174 56.35968594 52.789379 60.3125 42.625 C61.99951416 33.72983442 61.25766216 26.1036719 57 18 C52.73205479 12.18549374 52.73205479 12.18549374 47 8 C27.695 7.505 27.695 7.505 8 7 C8 38.68 8 70.36 8 103 C5.36 103 2.72 103 0 103 C0 69.01 0 35.02 0 0 Z " fill="#000000" transform="translate(0,0)"/>
<path d="M0 0 C3.63 0 7.26 0 11 0 C14.62423655 7.80154331 18.24684982 15.60383821 21.86816406 23.40673828 C23.35161672 26.60315335 24.83539423 29.79941741 26.31933594 32.99560547 C31.88893311 44.99273747 37.45079345 56.99342178 43 69 C43.31163086 69.67395813 43.62326172 70.34791626 43.94433594 71.04229736 C45.69872058 74.83766319 47.44602371 78.63619551 49.1875 82.4375 C49.59121826 83.31196777 49.99493652 84.18643555 50.41088867 85.08740234 C53 90.76678145 53 90.76678145 53 93 C50.03 93 47.06 93 44 93 C37.2469389 79.87137811 31.04614218 66.48657034 24.8331604 53.09715271 C22.58295157 48.24920548 20.32141846 43.40664802 18.0546875 38.56640625 C17.41094996 37.19092737 16.76723225 35.81543921 16.12353516 34.43994141 C15.19437758 32.45451629 14.26488937 30.46925043 13.33416748 28.48455811 C12.47670857 26.65566866 11.62112803 24.82589892 10.765625 22.99609375 C10.27868164 21.95638428 9.79173828 20.9166748 9.29003906 19.84545898 C8.11568487 17.25516789 7.03137339 14.64997206 6 12 C4.19903401 14.70144898 2.8236394 17.29637745 1.41796875 20.21484375 C0.64803589 21.81162964 0.64803589 21.81162964 -0.13745117 23.44067383 C-0.96660034 25.17160278 -0.96660034 25.17160278 -1.8125 26.9375 C-2.09767487 27.53146576 -2.38284973 28.12543152 -2.67666626 28.73739624 C-11.70547605 47.546816 -20.47888906 66.4783112 -29.01831055 85.51489258 C-29.39898682 86.35947021 -29.77966309 87.20404785 -30.171875 88.07421875 C-30.5028418 88.81244873 -30.83380859 89.55067871 -31.17480469 90.3112793 C-32 92 -32 92 -33 93 C-36.00003445 93.14177857 -38.99757235 93.04228771 -42 93 C-39.59592251 84.77209137 -35.94693885 77.24133418 -32.25097656 69.53540039 C-30.71604292 66.33473759 -29.19282485 63.12854577 -27.66888428 59.92263794 C-26.89459167 58.29401034 -26.11972957 56.66565338 -25.34429932 55.03756714 C-21.85559105 47.71042656 -18.41486681 40.36180672 -15 33 C-14.47913818 31.877146 -13.95827637 30.75429199 -13.42163086 29.59741211 C-8.87249617 19.76531749 -4.4114999 9.8945269 0 0 Z " fill="#000000" transform="translate(111,0)"/>
<path d="M0 0 C1.51400391 0.01740234 1.51400391 0.01740234 3.05859375 0.03515625 C4.07050781 0.04417969 5.08242187 0.05320313 6.125 0.0625 C7.29869141 0.07990234 7.29869141 0.07990234 8.49609375 0.09765625 C12.12050448 7.89911849 15.74294363 15.70149459 19.36425781 23.50439453 C20.84771047 26.7008096 22.33148798 29.89707366 23.81542969 33.09326172 C29.38502686 45.09039372 34.9468872 57.09107803 40.49609375 69.09765625 C40.80772461 69.77161438 41.11935547 70.44557251 41.44042969 71.13995361 C43.19481433 74.93531944 44.94211746 78.73385176 46.68359375 82.53515625 C47.08731201 83.40962402 47.49103027 84.2840918 47.90698242 85.18505859 C50.49609375 90.8644377 50.49609375 90.8644377 50.49609375 93.09765625 C47.52609375 93.09765625 44.55609375 93.09765625 41.49609375 93.09765625 C34.74303265 79.96903436 28.54223593 66.58422659 22.32925415 53.19480896 C20.07904532 48.34686173 17.81751221 43.50430427 15.55078125 38.6640625 C14.90704371 37.28858362 14.263326 35.91309546 13.61962891 34.53759766 C12.69047133 32.55217254 11.76098312 30.56690668 10.83026123 28.58221436 C9.97280232 26.75332491 9.11722178 24.92355517 8.26171875 23.09375 C7.77477539 22.05404053 7.28783203 21.01433105 6.78613281 19.94311523 C5.61177862 17.35282414 4.52746714 14.74762831 3.49609375 12.09765625 C1.26656072 15.4419558 -0.09885496 18.88705772 -1.54296875 22.609375 C-1.82868744 23.33759964 -2.11440613 24.06582428 -2.40878296 24.81611633 C-3.31882846 27.1378392 -4.22392397 29.46145574 -5.12890625 31.78515625 C-5.74576826 33.36145554 -6.36295199 34.93762897 -6.98046875 36.51367188 C-8.4920155 40.37355057 -9.99912632 44.23513475 -11.50390625 48.09765625 C-12.16390625 48.09765625 -12.82390625 48.09765625 -13.50390625 48.09765625 C-17.14174062 42.69602339 -17.75254224 40.68649672 -16.50390625 34.09765625 C-15.66797134 31.41902939 -14.64939238 28.83091817 -13.59765625 26.23046875 C-13.31289429 25.51027557 -13.02813232 24.7900824 -12.73474121 24.04806519 C-12.13646867 22.53908478 -11.53456724 21.03153851 -10.92919922 19.52539062 C-9.99940956 17.21146553 -9.08083935 14.89332645 -8.1640625 12.57421875 C-7.58006884 11.10521346 -6.99545567 9.63645427 -6.41015625 8.16796875 C-6.13409546 7.4732547 -5.85803467 6.77854065 -5.5736084 6.06277466 C-3.18175015 0.12409322 -3.18175015 0.12409322 0 0 Z " fill="#000000" transform="translate(161.50390625,-0.09765625)"/>
<path d="M0 0 C2.35465308 2.14059371 3.98615769 3.95847307 5 7 C4.5512821 12.93980811 2.67063828 17.94972851 0.4375 23.4375 C0.10814453 24.26443359 -0.22121094 25.09136719 -0.56054688 25.94335938 C-1.36685836 27.96498093 -2.18248123 29.98288449 -3 32 C-5.97 32 -8.94 32 -12 32 C-11.33379756 28.07700901 -10.18011521 24.56930204 -8.75 20.859375 C-8.3065625 19.70695312 -7.863125 18.55453125 -7.40625 17.3671875 C-6.9421875 16.17351562 -6.478125 14.97984375 -6 13.75 C-5.5359375 12.54085937 -5.071875 11.33171875 -4.59375 10.0859375 C-1.1334707 1.1334707 -1.1334707 1.1334707 0 0 Z " fill="#000000" transform="translate(133,62)"/>
</svg>
